<svg width="65" height="65" viewBox="0 0 65 65" fill="none" xmlns="http://www.w3.org/2000/svg">
<g id="Group 402">
<path id="Vector" d="M32.376 64.7519C14.4955 64.7519 0 50.2564 0 32.376C0 14.4955 14.4955 0 32.376 0C50.2564 0 64.7519 14.4955 64.7519 32.376C64.7519 50.2564 50.2564 64.7519 32.376 64.7519Z" fill="#E95144"/>
<path id="Vector_2" d="M36.4235 31.5309H23.3439L23.3572 35.2786H32.1757C31.1315 39.8406 27.9147 42.637 23.5917 42.637C17.9236 42.637 13.3307 38.0441 13.3307 32.376C13.3307 26.7079 17.9236 22.115 23.5917 22.115C26.2864 22.115 28.7377 23.1548 30.5695 24.8539L33.4633 22.3583C30.9235 19.8539 27.4412 18.3097 23.5917 18.3097C15.8218 18.3097 9.52539 24.6061 9.52539 32.376C9.52539 40.1459 15.8218 46.4423 23.5917 46.4423C31.0518 46.4423 36.4412 40.7521 36.4412 32.9822L36.4191 31.5309H36.4235Z" fill="#FEFEFE"/>
<path id="Vector_3" d="M55.2243 31.6857H49.8216V26.2875H46.3792V31.6857H40.9766V35.1326H46.3792V40.5308H49.8216V35.1326H55.2243V31.6857Z" fill="#FEFEFE"/>
</g>
</svg>
