<svg width="453" height="394" viewBox="0 0 453 394" fill="none" xmlns="http://www.w3.org/2000/svg">
<g clip-path="url(#clip0_15_6509)" filter="url(#filter0_d_15_6509)">
<path d="M73.5407 386H9.26758V383.992H57.507H68.2779C71.8954 354.775 82.7977 269.738 88.9489 254.822C95.2422 239.565 101.464 236.222 108.341 232.633C109.609 231.972 110.896 231.304 112.21 230.551C112.228 230.54 112.242 230.533 112.26 230.523C112.264 230.523 112.267 230.519 112.267 230.519C112.274 230.516 112.278 230.512 112.285 230.508C112.289 230.505 112.292 230.505 112.296 230.501C112.299 230.498 112.306 230.494 112.31 230.494C116.667 227.993 124.005 223.331 131.314 217.28V228.899C127.96 231.319 124.762 233.404 122.025 235.074L121.986 235.099C121.659 235.298 121.336 235.494 121.023 235.682L120.899 235.756C120.615 235.927 120.334 236.094 120.06 236.254L119.854 236.375C119.616 236.513 119.382 236.652 119.154 236.783C119.005 236.869 118.866 236.947 118.724 237.028C118.578 237.11 118.429 237.199 118.291 237.277C118.01 237.434 117.743 237.586 117.484 237.728C116.169 238.457 114.879 239.103 113.614 239.739C106.734 243.204 100.512 246.434 94.2188 261.179C88.0676 275.594 77.1618 357.763 73.5442 385.993L73.5407 386ZM122 179.301C120.238 178.203 117.477 176.302 114.89 173.772C114.556 173.442 114.154 173.097 113.714 172.731C118.98 168.336 124.026 162.914 126.855 160.384C127.779 159.56 128.646 159.205 129.481 159.205C130.106 159.205 130.714 159.403 131.314 159.752V170.646C129.015 172.731 125.664 176.082 122.004 179.301H122Z" fill="#E3E1E0"/>
<path d="M158.688 160.381C156.624 160.381 152.477 157.748 148.017 154.262C154.392 151.512 160.426 143.414 156.894 143.414C152.199 143.414 136.717 129.799 131.312 123.464C125.907 117.132 102.642 130.694 96.8137 139.108C96.8137 139.108 89.6391 157.144 96.8137 161.624L96.8208 161.628C95.3035 167.316 94.0206 175.723 98.6083 178.59C105.783 183.074 121.028 165.589 126.855 160.377C132.683 155.165 136.272 168.727 143.714 171.719C151.155 174.71 163.386 160.377 158.692 160.377L158.688 160.381Z" fill="#D28C6F"/>
<path d="M146.165 130.936C143.088 127.429 125.508 108.754 120.174 108.754C103.693 108.754 70.1865 134.887 66.6081 141.908C63.0261 148.929 57.646 165.856 53.2183 183.966C48.7906 202.076 47.7494 220.844 44.871 230.043C41.9926 239.242 37.9771 249.614 28.4607 272.073C23.1908 284.512 12.4946 313.747 3.99805 337.358V383.992H68.2711C71.8887 354.775 82.791 269.738 88.9422 254.822C95.2355 239.565 101.458 236.222 108.334 232.633C113.394 212.977 113.394 203.32 114.883 173.769C111.998 170.944 104.489 166.67 103.686 162.523C101.703 152.29 96.8062 143.414 117.431 131.284C117.431 131.284 132.47 140.846 137.029 140.323C137.029 140.323 144.36 145.525 147.771 146.9C151.186 148.272 161.062 149.455 162.096 141.371C162.096 141.371 149.235 134.439 146.158 130.932L146.165 130.936Z" fill="#E6AA8D"/>
<path d="M294.085 301.944H143.464C136.751 301.944 131.311 296.504 131.311 289.792V228.899V284.491C131.311 291.203 136.751 296.643 143.464 296.643H283.747C283.879 296.721 284.014 296.795 284.145 296.87C284.341 296.98 284.536 297.09 284.732 297.201C285.027 297.368 285.325 297.531 285.62 297.694C285.808 297.797 285.997 297.904 286.185 298.007C286.508 298.185 286.832 298.355 287.159 298.529C287.315 298.615 287.471 298.696 287.628 298.778C288.1 299.027 288.577 299.272 289.046 299.514C289.145 299.563 289.245 299.613 289.344 299.663C289.724 299.855 290.105 300.047 290.485 300.231C290.659 300.317 290.833 300.402 291.007 300.487C291.309 300.633 291.611 300.778 291.913 300.924C292.102 301.017 292.29 301.105 292.478 301.194C292.77 301.333 293.058 301.468 293.345 301.599C293.53 301.685 293.715 301.77 293.9 301.855C293.964 301.884 294.028 301.912 294.088 301.94L294.085 301.944Z" fill="#E3E1E0"/>
<path d="M312.904 296.643H143.464C136.751 296.643 131.311 291.203 131.311 284.491V33.6303C131.311 26.9184 136.751 21.4786 143.464 21.4786H312.904C319.617 21.4786 325.057 26.9184 325.057 33.6303V284.491C325.057 291.203 319.617 296.643 312.904 296.643Z" fill="#EF7F1A"/>
<path d="M142.529 286.705H313.842V31.4202H142.529V286.705Z" fill="#FEFEFE"/>
<path d="M192.766 85.9535H296.785V77.3443H192.766V85.9535Z" fill="#B4B3B4"/>
<path d="M192.766 101.601H296.785V92.9922H192.766V101.601Z" fill="#D6D4D2"/>
<path d="M158.688 117.246H296.786V108.637H158.688V117.246Z" fill="#D6D4D2"/>
<path d="M192.845 31.4202C192.899 33.8221 194.853 35.7586 197.27 35.7586H259.101C261.518 35.7586 263.472 33.8257 263.526 31.4202H192.842H192.845Z" fill="#D6D4D2"/>
<path d="M228.185 13.3135C226.109 13.3135 224.429 11.6329 224.429 9.55789C224.429 7.48286 226.109 5.80224 228.185 5.80224C230.26 5.80224 231.941 7.48286 231.941 9.55789C231.941 11.6329 230.26 13.3135 228.185 13.3135ZM259.101 9.55789H237.744C237.744 4.27795 233.465 0 228.185 0C222.904 0 218.626 4.27795 218.626 9.55789H197.269C194.82 9.55789 192.834 11.5441 192.834 13.9922V28.9686C192.834 31.4167 194.82 33.4029 197.269 33.4029H259.101C261.549 33.4029 263.535 31.4167 263.535 28.9686V13.9922C263.535 11.5441 261.549 9.55789 259.101 9.55789Z" fill="#D6D4D2"/>
<path d="M192.834 25.0104V28.9721C192.834 31.4202 194.82 33.4064 197.269 33.4064H259.101C261.549 33.4064 263.535 31.4202 263.535 28.9721V25.0104H192.834Z" fill="#CCCBCA"/>
<path d="M185.002 77.3443H158.691V101.598H185.002V77.3443ZM180.517 81.8283V97.1173H163.172V81.8283H180.517Z" fill="#D6D4D2"/>
<path d="M192.766 140.323H296.785V131.714H192.766V140.323Z" fill="#B4B3B4"/>
<path d="M192.766 155.968H296.785V147.362H192.766V155.968Z" fill="#D6D4D2"/>
<path d="M158.688 171.616H296.786V163.006H158.688V171.616Z" fill="#D6D4D2"/>
<path d="M158.688 239.541H220.114V230.935H158.688V239.541Z" fill="#D6D4D2"/>
<path d="M158.688 254.645H192.315V246.036H158.688V254.645Z" fill="#D6D4D2"/>
<path d="M235.615 239.541H297.042V230.931H235.615V239.541Z" fill="#D6D4D2"/>
<path d="M235.615 254.645H269.246V246.036H235.615V254.645Z" fill="#D6D4D2"/>
<path d="M185.002 131.714H158.691V155.968H185.002V131.714ZM180.517 136.198V151.487H163.172V136.198H180.517Z" fill="#D6D4D2"/>
<path d="M158.688 194.547H296.786V186.084H158.688V194.547Z" fill="#B4B3B4"/>
<path d="M220.303 200.559H158.691V224.813H220.303V200.559ZM215.818 205.043V220.329H163.172V205.043H215.818Z" fill="#D6D4D2"/>
<path d="M296.787 200.559H235.172V224.813H296.787V200.559ZM292.302 205.043V220.329H239.656V205.043H292.302Z" fill="#D6D4D2"/>
<path d="M185.468 76.3636L171.794 90.036L165.54 83.7825C164.527 82.7699 162.882 82.7699 161.869 83.7825C160.856 84.7951 160.856 86.4402 161.869 87.4529L169.957 95.5398C170.44 96.023 171.108 96.3001 171.794 96.3001C172.476 96.3001 173.148 96.023 173.631 95.5398L189.142 80.0304C190.155 79.0178 190.155 77.3727 189.142 76.36C188.13 75.3474 186.484 75.3474 185.472 76.36L185.468 76.3636Z" fill="#2FAA4D"/>
<path d="M185.468 129.881L171.794 143.553L165.543 137.3C164.531 136.287 162.885 136.287 161.869 137.3C160.856 138.312 160.856 139.957 161.869 140.973L169.957 149.06C170.44 149.544 171.108 149.821 171.794 149.821C172.476 149.821 173.148 149.544 173.631 149.06L189.142 133.551C190.155 132.538 190.155 130.893 189.142 129.881C188.13 128.868 186.484 128.868 185.472 129.881H185.468Z" fill="#2FAA4D"/>
<path d="M166.872 61.6928L164.939 58.9249C166.058 58.4452 166.712 57.4965 166.712 56.2067C166.712 54.2739 165.273 53.0836 162.97 53.0836H159.242V61.6963H161.236V59.298H162.97H163.069L164.729 61.6963H166.868L166.872 61.6928ZM164.693 56.2067C164.693 57.1412 164.079 57.7062 162.86 57.7062H161.236V54.7038H162.86C164.079 54.7038 164.693 55.2581 164.693 56.2032V56.2067ZM170.265 60.0939V58.1006H174.263V56.5514H170.265V54.6825H174.793V53.0836H168.282V61.6963H174.952V60.0974H170.265V60.0939ZM182.358 59.7741C181.853 60.0441 181.349 60.1436 180.809 60.1436C179.16 60.1436 178.016 58.9995 178.016 57.3864C178.016 55.7484 179.16 54.6292 180.834 54.6292C181.708 54.6292 182.433 54.9383 183.062 55.6027L184.341 54.4231C183.506 53.4495 182.248 52.9343 180.738 52.9343C177.994 52.9343 176.001 54.7926 176.001 57.3864C176.001 59.9837 177.994 61.8384 180.702 61.8384C181.932 61.8384 183.236 61.4583 184.185 60.7441V57.2514H182.365V59.7741H182.358ZM186.025 61.6928H188.019V53.08H186.025V61.6928ZM192.891 61.842C195.353 61.842 196.544 60.6126 196.544 59.1736C196.544 56.0113 191.537 57.1057 191.537 55.521C191.537 54.9809 191.992 54.5368 193.172 54.5368C193.936 54.5368 194.76 54.7571 195.559 55.2119L196.174 53.6982C195.375 53.1937 194.266 52.9343 193.186 52.9343C190.737 52.9343 189.558 54.153 189.558 55.6169C189.558 58.8147 194.565 57.7097 194.565 59.3193C194.565 59.8487 194.085 60.2431 192.905 60.2431C191.871 60.2431 190.787 59.8736 190.062 59.3442L189.387 60.8436C190.151 61.4334 191.526 61.8384 192.894 61.8384L192.891 61.842ZM199.571 61.6928H201.565V54.7038H204.323V53.08H196.817V54.7038H199.575V61.6928H199.571ZM213.018 61.6928L211.085 58.9249C212.204 58.4452 212.858 57.4965 212.858 56.2067C212.858 54.2739 211.419 53.0836 209.116 53.0836H205.389V61.6963H207.382V59.298H209.116H209.216L210.875 61.6963H213.015L213.018 61.6928ZM210.84 56.2067C210.84 57.1412 210.225 57.7062 209.006 57.7062H207.382V54.7038H209.006C210.225 54.7038 210.84 55.2581 210.84 56.2032V56.2067ZM220.868 61.6928H222.961L219.109 53.08H217.14L213.302 61.6928H215.346L216.11 59.8487H220.107L220.871 61.6928H220.868ZM216.746 58.3351L218.11 55.0378L219.475 58.3351H216.742H216.746ZM225.21 61.6928H227.204V54.7038H229.961V53.08H222.456V54.7038H225.214V61.6928H225.21ZM231.031 61.6928H233.025V53.08H231.031V61.6928ZM239.236 61.842C241.944 61.842 243.948 59.9588 243.948 57.3899C243.948 54.8175 241.944 52.9379 239.236 52.9379C236.518 52.9379 234.524 54.8317 234.524 57.3899C234.524 59.9482 236.518 61.842 239.236 61.842ZM239.236 60.1436C237.698 60.1436 236.543 59.0244 236.543 57.3864C236.543 55.7484 237.698 54.6292 239.236 54.6292C240.775 54.6292 241.93 55.7484 241.93 57.3864C241.93 59.0244 240.775 60.1436 239.236 60.1436ZM251.379 53.0836V58.3102L247.097 53.0836H245.448V61.6963H247.416V56.4697L251.709 61.6963H253.344V53.0836H251.375H251.379ZM265.38 54.6825V53.0836H258.87V61.6963H260.863V58.5589H264.85V56.96H260.863V54.6825H265.38ZM270.905 61.842C273.613 61.842 275.617 59.9588 275.617 57.3899C275.617 54.8175 273.613 52.9379 270.905 52.9379C268.187 52.9379 266.193 54.8317 266.193 57.3899C266.193 59.9482 268.187 61.842 270.905 61.842ZM270.905 60.1436C269.367 60.1436 268.212 59.0244 268.212 57.3864C268.212 55.7484 269.367 54.6292 270.905 54.6292C272.444 54.6292 273.599 55.7484 273.599 57.3864C273.599 59.0244 272.444 60.1436 270.905 60.1436ZM284.747 61.6928L282.813 58.9249C283.933 58.4452 284.587 57.4965 284.587 56.2067C284.587 54.2739 283.147 53.0836 280.845 53.0836H277.117V61.6963H279.111V59.298H280.845H280.944L282.604 61.6963H284.743L284.747 61.6928ZM282.568 56.2067C282.568 57.1412 281.953 57.7062 280.735 57.7062H279.111V54.7038H280.735C281.953 54.7038 282.568 55.2581 282.568 56.2032V56.2067ZM295.869 61.6928L295.844 53.08H294.206L291.033 58.431L287.81 53.08H286.161V61.6928H288.03V56.6367L290.553 60.7832H291.452L293.986 56.5265L293.996 61.6928H295.866H295.869Z" fill="#838283"/>
<path d="M131.34 228.874V217.259C135.231 214.033 139.115 210.412 142.53 206.518V219.796C140.167 221.981 137.704 224.042 135.259 225.946C133.941 226.973 132.633 227.943 131.343 228.874H131.34Z" fill="#EF7F1A"/>
<path d="M142.531 219.796V206.518C145.221 203.448 147.62 200.208 149.507 196.853C153.01 190.628 156.073 187.981 158.689 186.201V194.551H164.456C161.734 196.281 158.501 198.765 154.769 205.171C151.717 210.416 147.321 215.369 142.527 219.799L142.531 219.796ZM173.347 186.084H158.859C160.54 184.954 162.033 184.162 163.333 182.971C163.667 182.666 163.987 182.335 164.293 181.966C164.702 181.475 165.089 180.918 165.455 180.264L165.458 180.26C167.292 178.324 168.443 176.501 170.092 174.575C170.906 173.623 171.841 172.646 173.035 171.616H184.765C185.838 173.783 185.596 176.014 183.798 177.045C177.647 180.566 175.529 183.334 173.347 186.084Z" fill="#E3E1E0"/>
<path d="M184.767 171.616H173.037C174.341 170.493 175.962 169.306 178.076 168.027C178.225 167.935 178.382 167.842 178.538 167.75C178.872 167.551 179.153 167.309 179.38 167.036C182.013 167.998 183.861 169.782 184.767 171.616Z" fill="#C1C0BF"/>
<path d="M164.459 194.547H158.691V186.198C158.748 186.158 158.805 186.119 158.862 186.08H173.35C172.55 187.089 171.744 188.091 170.724 189.132L170.72 189.136C169.078 191.982 166.985 192.938 164.459 194.547Z" fill="#A2A4A5"/>
<path d="M369.015 383.992H362.366C355.49 364.916 344.794 336.953 337.747 326.791C326.646 310.781 319.166 311.004 309.877 308.073C309.607 307.988 309.322 307.895 309.031 307.803C308.942 307.775 308.85 307.743 308.761 307.714C308.555 307.647 308.349 307.579 308.132 307.508C308.015 307.469 307.89 307.426 307.769 307.384C307.567 307.316 307.364 307.245 307.155 307.174C307.027 307.131 306.895 307.085 306.764 307.039C306.547 306.964 306.33 306.886 306.106 306.808C305.975 306.762 305.847 306.716 305.712 306.67C305.435 306.57 305.154 306.471 304.866 306.364C304.784 306.336 304.706 306.307 304.625 306.279C304.251 306.144 303.871 306.002 303.484 305.856C303.381 305.817 303.274 305.778 303.175 305.739C302.887 305.628 302.599 305.518 302.304 305.405C302.155 305.348 302.002 305.287 301.853 305.231C301.593 305.131 301.334 305.028 301.067 304.921C300.907 304.857 300.744 304.794 300.581 304.726C300.314 304.619 300.048 304.513 299.777 304.403C299.614 304.339 299.454 304.271 299.291 304.204C298.999 304.083 298.701 303.959 298.402 303.834C298.26 303.774 298.118 303.713 297.972 303.653C297.535 303.468 297.091 303.28 296.647 303.084L296.434 302.989C296.053 302.825 295.673 302.655 295.289 302.484C295.126 302.413 294.962 302.335 294.795 302.26C294.561 302.154 294.33 302.05 294.092 301.94H312.911C318.224 301.94 322.741 298.533 324.393 293.782C328.44 296.188 332.722 300.125 337.751 307.409C348.856 323.494 369.022 383.989 369.022 383.989L369.015 383.992Z" fill="#E3E1E0"/>
<path d="M312.905 301.944H294.085C294.021 301.915 293.961 301.887 293.897 301.859C293.712 301.773 293.527 301.688 293.342 301.603C293.054 301.468 292.767 301.333 292.475 301.198C292.287 301.109 292.099 301.02 291.91 300.928C291.608 300.782 291.31 300.636 291.004 300.491C290.83 300.405 290.656 300.32 290.482 300.235C290.101 300.05 289.721 299.858 289.341 299.666C289.241 299.617 289.142 299.567 289.042 299.517C288.57 299.275 288.097 299.03 287.625 298.782C287.468 298.7 287.312 298.615 287.156 298.533C286.832 298.362 286.509 298.188 286.182 298.011C285.994 297.908 285.805 297.805 285.617 297.698C285.322 297.534 285.023 297.371 284.728 297.204C284.533 297.094 284.338 296.984 284.142 296.874C284.011 296.799 283.876 296.721 283.744 296.646H312.901C316.529 296.646 319.788 295.054 322.012 292.535C322.794 292.901 323.583 293.317 324.379 293.789C322.727 298.536 318.21 301.947 312.897 301.947L312.905 301.944Z" fill="#CDCBCC"/>
<path d="M312.904 296.643H283.747C283.584 296.55 283.42 296.454 283.261 296.358C283.072 296.252 282.887 296.142 282.699 296.032C282.369 295.836 282.042 295.637 281.715 295.438C281.566 295.349 281.416 295.26 281.267 295.168C280.801 294.88 280.332 294.589 279.87 294.294C279.753 294.219 279.639 294.145 279.522 294.067C279.17 293.839 278.819 293.612 278.47 293.381C278.3 293.267 278.129 293.15 277.959 293.036C277.667 292.837 277.372 292.638 277.084 292.439C276.903 292.315 276.722 292.187 276.541 292.059C276.26 291.864 275.983 291.665 275.706 291.462C275.528 291.334 275.35 291.206 275.173 291.075C274.885 290.858 274.597 290.645 274.309 290.425C274.156 290.307 274 290.19 273.847 290.073C273.453 289.767 273.062 289.458 272.675 289.146L272.554 289.05C271.616 288.286 270.706 287.504 269.828 286.701H304.347C306.469 287.486 308.345 288.122 309.866 288.606C314.12 289.956 317.993 290.638 322.012 292.528C319.784 295.047 316.529 296.639 312.901 296.639L312.904 296.643Z" fill="#EF7F1A"/>
<path d="M304.356 286.705H269.836C268.582 285.553 267.399 284.367 266.301 283.134C254.361 269.735 249.951 277.85 244.031 265.226C241.859 260.596 245.718 258.774 246.952 254.641H253.931C257.079 255.814 260.928 257.494 266.301 263.552C266.326 263.577 266.347 263.606 266.372 263.631C266.379 263.638 266.382 263.641 266.39 263.648C271.837 269.753 279.417 274.866 286.94 278.898C286.943 278.898 286.947 278.902 286.947 278.902C286.957 278.906 286.965 278.913 286.972 278.916C286.979 278.92 286.986 278.923 286.993 278.927C287 278.93 287.007 278.934 287.014 278.937C287.021 278.941 287.029 278.945 287.039 278.952C287.046 278.955 287.053 278.959 287.057 278.962C287.071 278.969 287.078 278.973 287.093 278.98C287.096 278.984 287.1 278.984 287.103 278.987C293.325 282.313 299.491 284.9 304.359 286.701L304.356 286.705ZM243.412 242.387C243.391 242.22 243.402 242.045 243.448 241.868L243.714 240.873L240.672 239.544H244.51C243.967 240.454 243.526 241.36 243.409 242.39L243.412 242.387ZM287.899 242.028C287.839 241.999 287.778 241.974 287.718 241.95L287.928 242.003C287.906 242.021 287.896 242.031 287.896 242.031L287.899 242.028ZM279.271 241.033C278.713 240.443 278.049 239.949 277.324 239.544H277.995L278.063 239.562C278.052 239.555 278.045 239.551 278.035 239.544H287.558C286.009 240.137 284.15 240.599 282.324 240.617L283.855 240.997C283.091 240.912 282.366 240.884 281.727 240.884C280.27 240.884 279.268 241.036 279.268 241.036L279.271 241.033ZM235.619 237.384C234.408 236.968 233.494 236.307 233.341 235.16L231.142 234.2C230.545 234.03 230.118 233.713 230.307 233.01C230.445 232.502 230.758 232.328 231.149 232.328C231.298 232.328 231.462 232.353 231.629 232.395L234.013 232.662L234.07 232.576C234.201 232.42 234.347 232.289 234.503 232.178C234.816 231.962 235.175 231.837 235.566 231.788C235.584 231.784 235.602 231.784 235.616 231.781V237.38L235.619 237.384ZM296.875 230.935H268.088C267.683 227.94 266.276 226.149 265.011 224.813H293.02C294.089 225.655 295.362 225.982 296.652 225.982C297.384 225.982 298.123 225.879 298.841 225.705C298.432 227.527 297.732 229.286 296.875 230.935ZM247.204 230.935H246.966C247.033 230.874 247.104 230.81 247.175 230.747C247.186 230.81 247.197 230.871 247.204 230.935ZM296.79 214.544V211.322C297.181 211.983 297.515 212.661 297.796 213.365C297.465 213.759 297.128 214.153 296.79 214.548V214.544Z" fill="#E3E1E0"/>
<path d="M287.558 239.541H278.034C276.958 238.876 276.037 237.86 275.394 236.382C274.307 236.922 272.914 237.448 271.425 237.771C270.05 237.593 268.866 237.561 268.177 237.561C267.768 237.561 267.534 237.572 267.534 237.572C267.999 235.696 268.195 234.086 268.195 232.697C268.195 232.065 268.152 231.478 268.077 230.931H296.865C296.282 232.051 295.632 233.116 294.949 234.115C293.315 235.714 291.566 237.313 290.323 238.151C289.658 238.599 288.688 239.103 287.554 239.537L287.558 239.541ZM277.995 239.541H277.324C277.125 239.427 276.922 239.324 276.716 239.224L277.999 239.541H277.995ZM244.51 239.541H240.672L236.014 237.505C235.879 237.465 235.747 237.426 235.619 237.38V231.781C235.754 231.763 235.893 231.756 236.038 231.756C236.5 231.756 236.998 231.834 237.513 231.962L244.858 232.782C245.196 232.491 245.708 232.047 246.33 231.496C246.436 231.34 246.575 231.23 246.728 231.144C246.806 231.073 246.884 231.002 246.966 230.931H247.204C247.278 231.461 247.314 231.958 247.314 232.427C247.31 235.646 245.676 237.6 244.514 239.541H244.51Z" fill="#C1C0BF"/>
<path d="M253.93 254.645H246.951C247.282 253.536 247.424 252.261 247.207 250.722C249.279 253.074 251.372 253.693 253.93 254.645Z" fill="#C1C0BF"/>
<path d="M291.506 220.329H257.35C257.506 220.098 257.645 219.881 257.758 219.675C258.195 218.89 258.966 217.383 259.961 215.457C260.498 215.06 261.102 214.555 261.738 213.99C263.117 217.245 265.807 218.304 268.593 218.304C271.791 218.304 275.11 216.907 276.699 215.831C279.744 213.766 285.81 207.133 285.81 207.133C285.899 207.122 287.246 206.23 288.969 205.043H290.65C291.236 205.463 291.784 205.882 292.295 206.298V219.49C291.993 219.81 291.723 220.091 291.499 220.329H291.506Z" fill="#E3E1E0"/>
<path d="M293.015 224.813H265.006C264.747 224.539 264.491 224.283 264.253 224.038C264.246 224.031 264.239 224.024 264.232 224.017C264.221 224.006 264.21 223.996 264.2 223.985C262.618 222.418 259.704 221.444 256.688 221.224C256.933 220.908 257.157 220.609 257.348 220.325H291.505C291.018 220.833 290.731 221.128 290.731 221.128C291.246 222.869 292.049 224.049 293.015 224.809V224.813ZM292.301 219.494V206.301C294.305 207.939 295.752 209.574 296.786 211.322V214.544C295.144 216.445 293.474 218.254 292.301 219.494ZM290.656 205.043H288.975C289.249 204.855 289.529 204.66 289.817 204.457C290.105 204.652 290.386 204.848 290.656 205.043Z" fill="#C1C0BF"/>
<path d="M296.367 199.184V193.378H278.596C276.606 196.612 275.476 198.857 274.904 199.884C272.636 203.963 261.535 213.457 261.535 213.457C264.254 221.139 273.66 217.895 276.705 215.834C279.751 213.77 285.817 207.136 285.817 207.136C286.108 207.108 299.729 197.703 296.367 199.188V199.184Z" fill="#D28C6F"/>
<path d="M309.99 201.718V193.378H293.825C290.808 197.98 289.234 201.138 288.527 202.414C286.259 206.493 275.158 215.987 275.158 215.987C277.877 223.669 287.279 220.425 290.325 218.36C293.37 216.296 299.436 209.662 299.436 209.662C299.727 209.634 313.348 200.229 309.99 201.714V201.718Z" fill="#D28C6F"/>
<path d="M319.909 206.862V193.378H309.369C304.824 200.769 302.724 205.853 301.932 207.559C300.034 211.638 290.734 221.132 290.734 221.132C293.012 228.814 300.89 225.57 303.442 223.505C305.993 221.444 311.071 214.807 311.071 214.807C311.313 214.779 322.727 205.374 319.909 206.859V206.862Z" fill="#D28C6F"/>
<path d="M244.39 213.368C244.39 213.368 255.494 203.874 257.758 199.795C260.025 195.716 271.126 172.379 276.34 171.246C281.553 170.113 297.867 183.028 304.661 186.88C311.459 190.731 330.72 186.222 335.705 192.33C340.691 198.434 349.525 213.841 357.684 230.608C365.843 247.375 370.825 265.5 375.583 273.881C380.341 282.263 386.461 291.555 400.508 311.491C414.555 331.428 448.999 383.992 448.999 383.992H369.013C369.013 383.992 348.846 323.501 337.741 307.412C326.64 291.327 319.16 291.555 309.871 288.609C300.582 285.664 278.234 277.015 266.297 263.552C254.357 250.093 249.947 258.244 244.027 245.559C241.039 239.157 249.478 238.098 246.76 228.977C244.041 219.853 259.769 219.472 264.25 224.038C266.322 226.149 269.609 229.226 267.534 237.576C267.534 237.576 275.622 237.178 279.264 241.033C279.264 241.033 284.04 240.304 287.892 242.028C287.892 242.028 299.448 232.424 299.221 222.002C298.993 211.581 296.04 206.621 279.264 198.665C279.264 198.665 273.23 206.596 268.664 207.047C268.664 207.047 262.598 213.681 259.553 215.745C256.507 217.81 247.104 221.05 244.382 213.372L244.39 213.368Z" fill="#E6AA8D"/>
<path d="M357.992 263.375C357.547 263.375 357.1 263.3 356.663 263.144L351.702 261.357L349.708 260.639C348.429 261.598 346.944 262.138 345.448 262.138C344.758 262.138 344.069 262.025 343.394 261.783L293.37 243.779C293.107 244.174 292.699 244.412 292.283 244.412C292.169 244.412 292.059 244.394 291.949 244.359L288.825 243.3C288.285 243.115 287.979 242.525 288.054 241.886C288.498 241.502 289.813 240.329 291.394 238.592L291.419 238.567L291.579 238.389L291.757 238.19C292.233 237.657 292.727 237.075 293.221 236.453L293.253 236.414L293.427 236.197L293.615 235.955L293.793 235.724L293.807 235.707L293.981 235.476L294.024 235.419C294.12 235.287 294.22 235.156 294.315 235.021L294.376 234.939L294.518 234.737L294.596 234.627L294.735 234.431L294.92 234.165L295.055 233.966L295.147 233.827L295.275 233.632L295.282 233.621L295.463 233.344L295.577 233.163L295.666 233.024L295.801 232.807L295.865 232.704C295.943 232.576 296.021 232.445 296.099 232.313L296.174 232.186L296.291 231.983L296.384 231.82L296.497 231.621L296.661 231.326L296.767 231.127L296.863 230.942L296.956 230.764L297.059 230.558C297.112 230.455 297.162 230.349 297.212 230.246L297.3 230.057L297.393 229.862L297.475 229.684C297.521 229.581 297.567 229.478 297.613 229.375L297.709 229.155L297.794 228.952L297.83 228.863C298.025 229.116 298.125 229.46 298.104 229.819L348.767 245.922C348.987 245.993 349.2 246.075 349.41 246.171L349.609 246.27C349.747 246.338 349.879 246.405 350.01 246.483L350.234 246.625C350.348 246.7 350.458 246.775 350.568 246.856L350.789 247.03C350.888 247.112 350.988 247.201 351.08 247.29L351.29 247.492C351.378 247.585 351.464 247.681 351.549 247.777L351.741 248C351.823 248.104 351.901 248.214 351.975 248.324L352.139 248.555C352.256 248.736 352.363 248.921 352.466 249.109C352.523 249.219 352.576 249.336 352.626 249.45C352.668 249.543 352.715 249.635 352.757 249.731C352.807 249.855 352.853 249.983 352.899 250.111C352.931 250.2 352.963 250.289 352.995 250.381C353.027 250.477 353.056 250.569 353.081 250.665L360.127 252.904C362.558 253.678 363.755 256.652 362.789 259.509C361.996 261.851 360.003 263.368 357.988 263.368L357.992 263.375Z" fill="#CF9A7F"/>
<path d="M257.611 221.317L257.661 221.324H257.665L257.718 221.331L257.611 221.317ZM258.791 221.505L258.844 221.516L258.869 221.519L258.908 221.526L258.791 221.501V221.505ZM259.978 221.782L259.999 221.789L260.024 221.796L260.063 221.807L259.978 221.782ZM260.33 221.885L260.358 221.892L260.38 221.899L260.408 221.91L260.419 221.913L260.326 221.885H260.33ZM260.71 222.006L260.731 222.013L260.763 222.024L260.788 222.031L260.71 222.006ZM261.399 222.258L261.428 222.269L261.467 222.283L261.492 222.294L261.396 222.255L261.399 222.258ZM261.741 222.4L261.769 222.411L261.787 222.418L261.801 222.425L261.826 222.436L261.748 222.4H261.741ZM262.071 222.549L262.089 222.557L262.131 222.578L262.149 222.589L262.071 222.549ZM262.394 222.709L262.423 222.724H262.426L262.434 222.727L262.451 222.738L262.398 222.709H262.394ZM262.7 222.876L262.707 222.88L262.743 222.898L262.757 222.905L262.704 222.873L262.7 222.876ZM263.269 223.228L263.272 223.232L263.311 223.257L263.322 223.264L263.269 223.228ZM264.018 223.811L264.029 223.818L264.065 223.85L264.068 223.853L264.022 223.811H264.018Z" fill="#CF9A7F"/>
<path d="M322.02 292.532C318.005 290.641 314.131 289.959 309.874 288.609C308.35 288.126 306.477 287.49 304.355 286.705C306.477 287.49 308.353 288.126 309.874 288.609C314.128 289.959 318.001 290.641 322.02 292.532Z" fill="#148583"/>
<path d="M287.035 278.955C287.024 278.952 287.017 278.948 287.01 278.941C287.017 278.945 287.028 278.952 287.035 278.955ZM286.943 278.906C286.939 278.902 286.936 278.902 286.936 278.902C286.939 278.902 286.943 278.906 286.943 278.906Z" fill="#CDCBCC"/>
<path d="M374.879 383.992H369.012C369.012 383.992 348.846 323.501 337.741 307.412C331.721 298.693 326.768 294.767 322.017 292.532C318.001 290.641 314.128 289.959 309.871 288.609C308.346 288.126 306.473 287.49 304.352 286.705C299.487 284.903 293.318 282.316 287.096 278.991C287.092 278.987 287.089 278.987 287.085 278.984C287.071 278.977 287.064 278.973 287.05 278.966C287.043 278.962 287.035 278.959 287.032 278.955C287.025 278.952 287.014 278.948 287.007 278.941C287 278.937 286.993 278.934 286.986 278.93C286.979 278.927 286.971 278.923 286.964 278.92C286.954 278.916 286.947 278.909 286.939 278.906C286.936 278.906 286.932 278.902 286.932 278.902C281.954 276.23 276.95 273.089 272.555 269.5C290.067 275.367 308.083 281.695 313.513 283.549C322.805 286.726 330.279 286.481 341.383 303.82C352.485 321.159 374.876 383.992 374.876 383.992H374.879Z" fill="#CF9A7F"/>
<path d="M357.354 252.733L368.064 255.832C370.516 256.539 373.167 254.734 373.949 251.82C374.734 248.907 373.345 246.014 370.871 245.396L360.054 242.703L357.357 252.73L357.354 252.733Z" fill="#818282"/>
<path d="M357.354 252.733L368.064 255.832C370.516 256.539 373.167 254.734 373.949 251.82C374.734 248.907 373.345 246.014 370.871 245.396L360.054 242.703L357.357 252.73L357.354 252.733Z" fill="#818282"/>
<path d="M357.354 252.733L368.064 255.832C370.516 256.539 373.167 254.734 373.949 251.82C374.734 248.907 373.345 246.014 370.871 245.396L360.054 242.703L357.357 252.73L357.354 252.733Z" fill="#818282"/>
<path d="M365.925 249.66C366.447 247.713 366.344 245.776 365.751 244.124L360.051 242.706L357.354 252.733L362.997 254.364C364.34 253.231 365.402 251.607 365.925 249.66Z" fill="#696668"/>
<path d="M223.347 212.405L226.482 213.78L227.292 210.764L223.891 210.38C223.22 210.213 222.63 210.277 222.416 211.069C222.203 211.858 222.683 212.213 223.347 212.402V212.405Z" fill="#818282"/>
<path d="M228.785 216.115L238.418 220.343L240.909 211.076L230.455 209.9C228.394 209.385 226.574 209.588 225.921 212.015C225.267 214.441 226.741 215.525 228.781 216.115H228.785Z" fill="#818282"/>
<path d="M239.51 216.289L240.91 211.073L230.456 209.897C228.395 209.382 226.575 209.584 225.925 212.011C225.868 212.224 225.847 212.412 225.818 212.604L239.507 216.285L239.51 216.289Z" fill="#696668"/>
<path d="M240.146 222.176L354.734 255.323C358.53 256.421 362.637 253.622 363.853 249.106C365.068 244.59 362.922 240.109 359.084 239.157L243.327 210.359L240.146 222.18V222.176Z" fill="#818282"/>
<path d="M364.158 247.301C364.457 243.452 362.406 239.978 359.084 239.153L243.327 210.355L242.211 214.509L364.162 247.304L364.158 247.301Z" fill="#696668"/>
<path d="M316.775 236.442C316.473 237.569 317.127 238.73 318.25 239.054L355.572 249.852C356.877 250.228 358.287 249.269 358.703 247.716C359.119 246.167 358.383 244.629 357.065 244.302L319.362 234.921C318.228 234.637 317.08 235.316 316.775 236.442Z" fill="#F1A53F"/>
<path d="M303.45 224.191L306.634 225.047C307.288 225.225 307.65 225.992 307.44 226.767L303.844 240.134C303.634 240.908 302.938 241.392 302.284 241.218L299.097 240.361C298.443 240.187 298.08 239.416 298.29 238.645L301.886 225.275C302.096 224.5 302.792 224.017 303.446 224.195L303.45 224.191Z" fill="#F1A53F"/>
<path d="M241.49 208.859L244.066 209.552C244.652 209.709 244.976 210.398 244.791 211.094L241.785 222.265C241.596 222.958 240.971 223.392 240.384 223.235L237.808 222.542C237.222 222.386 236.898 221.697 237.083 221L240.09 209.826C240.274 209.133 240.903 208.699 241.49 208.856V208.859Z" fill="#F1A53F"/>
<path d="M269.56 237.608C268.348 237.54 267.538 237.576 267.538 237.576C269.609 229.226 266.326 226.152 264.254 224.038C259.773 219.472 244.045 219.853 246.764 228.977C249.482 238.101 241.042 239.157 244.031 245.559C249.951 258.241 254.361 250.09 266.301 263.552C267.314 264.697 268.412 265.798 269.56 266.868V237.608Z" fill="#E6AA8D"/>
<path d="M269.558 178.48C264.598 186.027 259.253 197.106 257.757 199.795C255.49 203.874 244.389 213.368 244.389 213.368C247.107 221.05 256.513 217.806 259.559 215.742C262.604 213.677 268.67 207.044 268.67 207.044C268.961 207.015 269.26 206.944 269.558 206.859V178.477V178.48Z" fill="#E6AA8D"/>
<path d="M320.841 188.763C318.481 188.72 316.09 188.713 313.844 188.624C316.09 188.717 318.481 188.72 320.841 188.763Z" fill="#0D9290"/>
<path d="M309.799 188.312C309.788 188.312 309.781 188.308 309.774 188.308C309.781 188.308 309.792 188.312 309.799 188.312ZM309.76 188.308C309.753 188.308 309.749 188.305 309.742 188.305C309.749 188.305 309.753 188.305 309.76 188.308ZM301.452 184.886C300.453 184.236 299.373 183.508 298.239 182.744C298.236 182.74 298.232 182.737 298.229 182.737C299.366 183.508 300.453 184.236 301.452 184.89V184.886Z" fill="#E3E1E0"/>
<path d="M328.264 197.852C327.272 197.852 325.346 197.305 322.088 195.944C305.745 189.118 298.606 183.028 298.236 182.747C299.37 183.515 300.454 184.24 301.449 184.89C302.657 185.682 303.744 186.365 304.661 186.88C305.955 187.612 307.703 188.045 309.714 188.301C309.718 188.301 309.718 188.301 309.721 188.301C309.729 188.301 309.736 188.305 309.746 188.305C309.753 188.305 309.757 188.305 309.764 188.308C309.768 188.308 309.771 188.308 309.775 188.312C309.782 188.312 309.792 188.315 309.8 188.315H309.803C311.061 188.472 312.422 188.564 313.844 188.621C316.089 188.713 318.481 188.717 320.84 188.759C320.84 188.759 332.318 197.852 328.264 197.852Z" fill="#CF9A7F"/>
<path d="M277.494 200.783C275.912 198.9 276.431 193.904 276.431 193.904C277.188 196.85 279.267 198.662 279.267 198.662L277.49 200.783H277.494Z" fill="#CF9A7F"/>
<path d="M244.64 246.807L244.029 245.563C244.029 245.563 246.474 239.157 252.234 239.157C252.295 239.157 252.352 239.157 252.412 239.16C252.412 239.16 245.248 242.841 244.64 246.81V246.807Z" fill="#CF9A7F"/>
<path d="M166.428 157.012C153.671 159.88 146.493 167.146 143.913 170.262C143.721 170.486 143.536 170.72 143.355 170.962C142.985 171.441 142.804 171.719 142.804 171.719C142.804 171.719 134.812 173.04 132.069 177.578C132.069 177.578 127.25 177.876 123.849 180.374C123.849 180.374 119.134 177.915 114.895 173.769C102.947 190.461 100.229 213.748 108.345 232.633C109.614 231.972 110.9 231.304 112.215 230.551C120.673 225.708 140.686 212.533 149.51 196.853C156.709 184.059 162.05 186.382 165.458 180.264L165.462 180.26C169.26 176.249 170.134 172.724 178.539 167.746C183.069 165.064 177.707 154.479 166.432 157.012H166.428Z" fill="#E6AA8D"/>
<path d="M169.744 174.618C167.637 174.618 163.188 170.479 162.125 169.292C160.906 167.931 166.947 163.202 172.686 161.521C172.917 161.454 173.145 161.418 173.372 161.418C174.769 161.418 176.115 162.743 177.91 165.877C178.333 166.613 178.34 167.331 178.077 168.023L177.782 168.205L177.771 168.212L177.764 168.215L177.402 168.439L177.398 168.443L177.046 168.666L177.029 168.677C176.815 168.812 176.609 168.951 176.407 169.082L176.364 169.111L176.318 169.143L176.037 169.334L175.98 169.374L175.732 169.544L175.717 169.555L175.65 169.601L175.426 169.757L175.408 169.768L175.39 169.779L175.106 169.981L175.096 169.988L174.815 170.194L174.79 170.212C174.417 170.489 174.065 170.759 173.735 171.029L173.731 171.033L173.482 171.235L173.479 171.239L173.472 171.242L173.233 171.441L173.219 171.456L173.034 171.616C172.867 171.761 172.704 171.903 172.544 172.045L172.338 172.234L172.327 172.244C172.111 172.443 171.904 172.639 171.709 172.834L171.698 172.845L171.514 173.03C171.386 173.158 171.261 173.286 171.137 173.413L171.108 173.442C171.005 173.548 170.906 173.655 170.81 173.762L170.778 173.797L170.767 173.808L170.604 173.985L170.6 173.989L170.44 174.17L170.433 174.177L170.28 174.351L170.266 174.366L170.241 174.394L170.124 174.529L170.103 174.554L170.085 174.575C169.978 174.607 169.861 174.621 169.737 174.621L169.744 174.618Z" fill="#E9B39B"/>
<path d="M163.332 182.971C163.325 182.968 163.318 182.961 163.307 182.957C162.465 182.453 161.651 181.93 160.848 181.39C160.045 180.85 159.252 180.292 158.467 179.706C157.685 179.109 156.9 178.505 156.146 177.759C157.205 177.826 158.193 178.111 159.149 178.48C160.098 178.857 161.001 179.336 161.846 179.901C162.692 180.466 163.481 181.12 164.188 181.856L164.291 181.966L164.277 181.984L164.263 181.998V182.001L164.249 182.019C164.199 182.076 164.153 182.133 164.103 182.186L164.089 182.204L164.085 182.211L164.074 182.222C164.021 182.282 163.968 182.342 163.911 182.399L163.9 182.41L163.897 182.413L163.883 182.431C163.833 182.485 163.783 182.534 163.733 182.588L163.719 182.602L163.716 182.605L163.701 182.62C163.648 182.673 163.591 182.73 163.538 182.783L163.534 182.787L163.527 182.794L163.52 182.801L163.506 182.815C163.456 182.865 163.403 182.911 163.35 182.961L163.335 182.975L163.332 182.971Z" fill="#CF9A7F"/>
<path d="M68.2747 383.992C71.8922 354.775 82.7945 269.738 88.9457 254.822C95.2391 239.565 101.461 236.222 108.337 232.633C109.606 231.972 110.892 231.304 112.207 230.551C110.892 231.304 109.603 231.972 108.337 232.633C101.461 236.222 95.2355 239.562 88.9457 254.822C82.7945 269.742 71.8922 354.775 68.2747 383.992Z" fill="#CDCBCC"/>
<path d="M68.2747 383.992H57.5039C60.4391 366.788 67.6991 324.815 71.5547 296.643C76.3377 261.673 84.1698 243.236 88.2919 239.157C92.2186 235.273 98.3413 231.667 106.554 227.886C107.076 229.492 107.669 231.077 108.337 232.633C101.461 236.222 95.2355 239.562 88.9457 254.822C82.7945 269.742 71.8922 354.775 68.2747 383.992Z" fill="#CF9A7F"/>
<path d="M112.271 230.519C112.275 230.516 112.282 230.512 112.289 230.508C112.282 230.512 112.279 230.516 112.271 230.519ZM112.3 230.505C112.303 230.501 112.311 230.498 112.314 230.498C112.311 230.501 112.307 230.501 112.3 230.505Z" fill="#CDCBCC"/>
<path d="M108.341 232.633C107.672 231.081 107.079 229.496 106.557 227.886C113.074 224.891 120.902 221.786 129.992 218.353C123.134 223.882 116.404 228.142 112.31 230.494C112.306 230.498 112.303 230.498 112.296 230.501C112.292 230.505 112.289 230.505 112.285 230.508C112.278 230.512 112.274 230.516 112.267 230.519C112.264 230.523 112.26 230.523 112.26 230.523C112.242 230.533 112.228 230.54 112.21 230.551C110.896 231.304 109.606 231.972 108.341 232.633Z" fill="#CF9A7F"/>
</g>
<defs>
<filter id="filter0_d_15_6509" x="0" y="0" width="453" height="394" filterUnits="userSpaceOnUse" color-interpolation-filters="sRGB">
<feFlood flood-opacity="0" result="BackgroundImageFix"/>
<feColorMatrix in="SourceAlpha" type="matrix" values="0 0 0 0 0 0 0 0 0 0 0 0 0 0 0 0 0 0 127 0" result="hardAlpha"/>
<feOffset dy="4"/>
<feGaussianBlur stdDeviation="2"/>
<feComposite in2="hardAlpha" operator="out"/>
<feColorMatrix type="matrix" values="0 0 0 0 0 0 0 0 0 0 0 0 0 0 0 0 0 0 0.25 0"/>
<feBlend mode="normal" in2="BackgroundImageFix" result="effect1_dropShadow_15_6509"/>
<feBlend mode="normal" in="SourceGraphic" in2="effect1_dropShadow_15_6509" result="shape"/>
</filter>
<clipPath id="clip0_15_6509">
<rect width="445" height="386" fill="white" transform="translate(4)"/>
</clipPath>
</defs>
</svg>
