<svg width="65" height="65" viewBox="0 0 65 65" fill="none" xmlns="http://www.w3.org/2000/svg">
<g id="Group 403">
<path id="Vector" d="M32.376 64.7519C14.4955 64.7519 0 50.2564 0 32.376C0 14.4955 14.4955 0 32.376 0C50.2564 0 64.7519 14.4955 64.7519 32.376C64.7519 50.2564 50.2564 64.7519 32.376 64.7519Z" fill="#3260A0"/>
<path id="Vector_2" d="M27.443 51.9467H35.3235V32.2123H40.8235L41.412 25.6061H35.328C35.328 25.6061 35.328 23.1371 35.328 21.8406C35.328 20.2831 35.6421 19.6681 37.1465 19.6681C38.3589 19.6681 41.412 19.6681 41.412 19.6681V12.8097C41.412 12.8097 36.9164 12.8097 35.9563 12.8097C30.0935 12.8097 27.4475 15.3938 27.4475 20.3362C27.4475 24.6415 27.4475 25.6061 27.4475 25.6061H23.3457V32.2963H27.4475V51.9511L27.443 51.9467Z" fill="#FEFEFE"/>
</g>
</svg>
