<svg width="65" height="65" viewBox="0 0 65 65" fill="none" xmlns="http://www.w3.org/2000/svg">
<g id="Group 404">
<path id="Vector" fill-rule="evenodd" clip-rule="evenodd" d="M32.376 64.7519C14.4955 64.7519 0 50.2564 0 32.376C0 14.4955 14.4955 0 32.376 0C50.2564 0 64.7519 14.4955 64.7519 32.376C64.7519 50.2564 50.2564 64.7519 32.376 64.7519Z" fill="url(#paint0_radial_16_6909)"/>
<path id="Vector_2" d="M32.3752 14.6238C27.5566 14.6238 26.9504 14.646 25.0566 14.73C23.1672 14.8141 21.8752 15.115 20.7469 15.553C19.5788 16.0044 18.5876 16.615 17.6009 17.6017C16.6142 18.5884 16.008 19.5796 15.5522 20.7477C15.1142 21.876 14.8133 23.168 14.7292 25.0574C14.6407 26.9512 14.623 27.5574 14.623 32.376C14.623 37.199 14.6452 37.8007 14.7292 39.6945C14.8133 41.5839 15.1142 42.8759 15.5522 44.0042C16.0036 45.1724 16.6142 46.1635 17.6009 47.1502C18.5876 48.137 19.5788 48.7431 20.7469 49.1989C21.8752 49.637 23.1672 49.9378 25.0566 50.0219C26.9504 50.1104 27.5566 50.1281 32.3752 50.1281C37.1982 50.1281 37.7999 50.1104 39.6937 50.0219C41.5831 49.9334 42.8751 49.637 44.0034 49.1989C45.1716 48.7476 46.1583 48.137 47.1494 47.1502C48.1361 46.1635 48.7423 45.1724 49.1981 44.0042C49.6361 42.8759 49.937 41.5839 50.0211 39.6945C50.1052 37.8007 50.1273 37.1945 50.1273 32.376C50.1273 27.5574 50.1052 26.9512 50.0211 25.0574C49.9326 23.168 49.6361 21.876 49.1981 20.7477C48.7423 19.5796 48.1361 18.5884 47.1494 17.6017C46.1627 16.615 45.1716 16.0088 44.0034 15.553C42.8751 15.115 41.5831 14.8141 39.6937 14.73C37.7999 14.6415 37.1937 14.6238 32.3752 14.6238ZM32.3752 17.8229C37.1141 17.8229 37.676 17.8406 39.5477 17.9247C41.2778 18.0044 42.2202 18.292 42.8441 18.5353C43.6716 18.8583 44.2645 19.2433 44.8839 19.8628C45.5078 20.4822 45.8884 21.0751 46.2114 21.9026C46.4547 22.5265 46.7423 23.4689 46.822 25.199C46.9061 27.0707 46.9238 27.6326 46.9238 32.3715C46.9238 37.1105 46.9061 37.6724 46.822 39.5441C46.7423 41.2742 46.4547 42.2166 46.2114 42.8405C45.8884 43.668 45.5034 44.2609 44.8839 44.8848C44.2645 45.5042 43.6716 45.8892 42.8441 46.2122C42.2158 46.4555 41.2778 46.7432 39.5477 46.8228C37.676 46.9069 37.1141 46.9246 32.3752 46.9246C27.6363 46.9246 27.0743 46.9069 25.2026 46.8228C23.4726 46.7432 22.5301 46.4555 21.9062 46.2122C21.0788 45.8892 20.4858 45.5042 19.8664 44.8848C19.2469 44.2609 18.862 43.6724 18.5389 42.8405C18.2956 42.2166 18.008 41.2742 17.9283 39.5441C17.8443 37.6724 17.8266 37.1105 17.8266 32.3715C17.8266 27.6326 17.8443 27.0707 17.9283 25.199C18.008 23.4689 18.2956 22.5265 18.5389 21.9026C18.862 21.0751 19.2469 20.4822 19.8664 19.8628C20.4858 19.2433 21.0788 18.8583 21.9062 18.5353C22.5301 18.292 23.4726 18.0044 25.2026 17.9247C27.0743 17.8406 27.6363 17.8229 32.3752 17.8229Z" fill="#FEFEFE"/>
<path id="Vector_3" d="M32.3767 38.2918C29.1068 38.2918 26.4608 35.6414 26.4608 32.3759C26.4608 29.106 29.1113 26.46 32.3767 26.46C35.6466 26.46 38.2926 29.1105 38.2926 32.3759C38.2926 35.6458 35.6422 38.2918 32.3767 38.2918ZM32.3767 23.2609C27.3414 23.2609 23.2617 27.3406 23.2617 32.3759C23.2617 37.4113 27.3458 41.4909 32.3767 41.4909C37.4121 41.4909 41.4917 37.4113 41.4917 32.3759C41.4917 27.3406 37.4121 23.2609 32.3767 23.2609Z" fill="#FEFEFE"/>
<path id="Vector_4" d="M43.9817 22.8981C43.9817 24.0751 43.026 25.0308 41.849 25.0308C40.672 25.0308 39.7207 24.0795 39.7207 22.8981C39.7207 21.7211 40.672 20.7698 41.849 20.7698C43.026 20.7698 43.9817 21.7211 43.9817 22.8981Z" fill="#FEFEFE"/>
</g>
<defs>
<radialGradient id="paint0_radial_16_6909" cx="0" cy="0" r="1" gradientUnits="userSpaceOnUse" gradientTransform="translate(-1.76683 64.7761) rotate(-43.8768) scale(119.721 119.721)">
<stop stop-color="#F7E94B"/>
<stop offset="0.239216" stop-color="#F08449"/>
<stop offset="0.490196" stop-color="#E7457D"/>
<stop offset="1" stop-color="#34529E"/>
</radialGradient>
</defs>
</svg>
