<svg width="1920" height="2687" viewBox="0 0 1920 2687" fill="none" xmlns="http://www.w3.org/2000/svg">
<rect width="470.054" height="182.619" rx="68.4215" transform="matrix(-0.657235 0.753686 -0.763069 -0.646317 534.182 316.677)" fill="url(#paint0_linear_3_564)"/>
<rect width="471.835" height="181.927" rx="68.4215" transform="matrix(0.831381 0.555703 -0.5669 0.823787 1527.72 816.636)" fill="url(#paint1_linear_3_564)"/>
<rect width="471.835" height="181.927" rx="68.4215" transform="matrix(0.831381 0.555703 -0.5669 0.823787 -4.86523 2094)" fill="url(#paint2_linear_3_564)"/>
<rect width="141.978" height="395.762" rx="68.4215" transform="matrix(-0.831381 -0.555703 0.5669 -0.823787 1675.56 1815.73)" fill="url(#paint3_linear_3_564)"/>
<rect width="141.978" height="395.762" rx="68.4215" transform="matrix(-0.831381 -0.555703 0.5669 -0.823787 103.227 1596.06)" fill="url(#paint4_linear_3_564)"/>
<g filter="url(#filter0_f_3_564)">
<ellipse cx="619.094" cy="650.769" rx="619.094" ry="650.769" transform="matrix(0.71696 0.697114 -0.707479 0.706734 1119.81 -550)" fill="url(#paint5_linear_3_564)"/>
</g>
<g filter="url(#filter1_f_3_564)">
<ellipse cx="619.094" cy="650.769" rx="619.094" ry="650.769" transform="matrix(0.71696 0.697114 -0.707479 0.706734 840.811 951)" fill="url(#paint6_linear_3_564)"/>
</g>
<g filter="url(#filter2_f_3_564)">
<ellipse cx="90.2869" cy="97.9158" rx="90.2869" ry="97.9158" transform="matrix(0.71696 0.697114 -0.707479 0.706734 1787.37 330.979)" fill="url(#paint7_linear_3_564)"/>
</g>
<g filter="url(#filter3_f_3_564)">
<ellipse cx="140.325" cy="159.561" rx="140.325" ry="159.561" transform="matrix(0.71696 0.697114 -0.707479 0.706734 228.417 937.058)" fill="url(#paint8_linear_3_564)"/>
</g>
<g filter="url(#filter4_d_3_564)">
<ellipse cx="29.9995" cy="743" rx="167" ry="165" fill="#CED3FD"/>
</g>
<g filter="url(#filter5_d_3_564)">
<ellipse cx="1704.5" cy="2253" rx="167.5" ry="165" fill="#CED3FD"/>
</g>
<g filter="url(#filter6_d_3_564)">
<ellipse cx="685" cy="2133.5" rx="167" ry="164.5" fill="#CED3FD"/>
</g>
<g filter="url(#filter7_d_3_564)">
<ellipse cx="86.0343" cy="87.2588" rx="86.0343" ry="87.2588" transform="matrix(0.123141 0.992389 -0.992815 0.119657 1248.74 1009.84)" fill="#CED3FD"/>
</g>
<g filter="url(#filter8_d_3_564)">
<ellipse cx="26.4956" cy="26.8727" rx="26.4956" ry="26.8727" transform="matrix(0.123141 0.992389 -0.992815 0.119657 238.615 252.904)" fill="#CED3FD"/>
</g>
<path d="M1179.54 625.021C1179.9 623.932 1181.51 624.195 1181.49 625.341L1180.77 670.464C1180.76 670.884 1181.02 671.263 1181.41 671.411L1219.14 685.613C1220.16 685.998 1219.91 687.508 1218.81 687.547L1178.45 688.974C1178.03 688.988 1177.67 689.265 1177.53 689.664L1163.43 732.599C1163.07 733.689 1161.46 733.425 1161.48 732.28L1162.2 687.156C1162.21 686.736 1161.95 686.357 1161.56 686.209L1123.83 672.007C1122.81 671.622 1123.06 670.112 1124.16 670.073L1164.52 668.647C1164.94 668.632 1165.31 668.356 1165.44 667.956L1179.54 625.021Z" fill="#CEDCE9"/>
<g filter="url(#filter9_d_3_564)">
<ellipse cx="76.1671" cy="77.2512" rx="76.1671" ry="77.2512" transform="matrix(0.123141 0.992389 -0.992815 0.119657 1121.45 1085.27)" fill="#CED3FD"/>
</g>
<g filter="url(#filter10_d_3_564)">
<ellipse cx="25.438" cy="25.8001" rx="25.438" ry="25.8001" transform="matrix(0.123141 0.992389 -0.992815 0.119657 1810.16 284.663)" fill="#CED3FD"/>
</g>
<path d="M1812.11 487.225C1812.88 486.365 1814.26 487.238 1813.79 488.281L1795.07 529.443C1794.9 529.825 1794.98 530.273 1795.29 530.562L1824.29 558.29C1825.07 559.042 1824.24 560.324 1823.22 559.934L1785.54 545.551C1785.15 545.401 1784.7 545.51 1784.42 545.826L1754.29 579.78C1753.53 580.64 1752.14 579.766 1752.62 578.724L1771.33 537.561C1771.51 537.179 1771.42 536.732 1771.12 536.442L1742.12 508.714C1741.33 507.962 1742.16 506.681 1743.19 507.071L1780.86 521.453C1781.26 521.604 1781.71 521.494 1781.99 521.179L1812.11 487.225Z" fill="#F2D146"/>
<rect width="18.7364" height="77.3173" rx="9.36819" transform="matrix(0.712236 0.70194 -0.712236 0.70194 64.4258 363.206)" fill="url(#paint9_linear_3_564)"/>
<rect width="18.7364" height="77.3173" rx="9.36819" transform="matrix(0.712236 0.70194 -0.712236 0.70194 72.4822 1815.74)" fill="url(#paint10_linear_3_564)"/>
<rect width="18.7364" height="77.3173" rx="9.36819" transform="matrix(0.712236 0.70194 -0.712236 0.70194 545.124 2608.41)" fill="url(#paint11_linear_3_564)"/>
<rect width="18.7364" height="77.3173" rx="9.36819" transform="matrix(0.712236 0.70194 -0.712236 0.70194 1871.74 1897.79)" fill="url(#paint12_linear_3_564)"/>
<rect width="18.7364" height="77.3173" rx="9.36819" transform="matrix(0.712236 0.70194 -0.712236 0.70194 1847.57 741.207)" fill="url(#paint13_linear_3_564)"/>
<rect width="18.6973" height="77.3173" rx="9.34864" transform="matrix(0.712236 -0.70194 0.712236 0.70194 9.35742 379.833)" fill="url(#paint14_linear_3_564)"/>
<rect width="18.6973" height="77.3173" rx="9.34864" transform="matrix(0.712236 -0.70194 0.712236 0.70194 17.4136 1832.37)" fill="url(#paint15_linear_3_564)"/>
<rect width="18.6973" height="77.3173" rx="9.34864" transform="matrix(0.712236 -0.70194 0.712236 0.70194 490.056 2625.03)" fill="url(#paint16_linear_3_564)"/>
<rect width="18.6973" height="77.3173" rx="9.34864" transform="matrix(0.712236 -0.70194 0.712236 0.70194 1816.67 1914.41)" fill="url(#paint17_linear_3_564)"/>
<rect width="18.6973" height="77.3173" rx="9.34864" transform="matrix(0.712236 -0.70194 0.712236 0.70194 1792.5 757.835)" fill="url(#paint18_linear_3_564)"/>
<defs>
<filter id="filter0_f_3_564" x="313.745" y="-439.206" width="1579.05" height="1561.41" filterUnits="userSpaceOnUse" color-interpolation-filters="sRGB">
<feFlood flood-opacity="0" result="BackgroundImageFix"/>
<feBlend mode="normal" in="SourceGraphic" in2="BackgroundImageFix" result="shape"/>
<feGaussianBlur stdDeviation="75" result="effect1_foregroundBlur_3_564"/>
</filter>
<filter id="filter1_f_3_564" x="34.7471" y="1061.79" width="1579.05" height="1561.41" filterUnits="userSpaceOnUse" color-interpolation-filters="sRGB">
<feFlood flood-opacity="0" result="BackgroundImageFix"/>
<feBlend mode="normal" in="SourceGraphic" in2="BackgroundImageFix" result="shape"/>
<feGaussianBlur stdDeviation="75" result="effect1_foregroundBlur_3_564"/>
</filter>
<filter id="filter2_f_3_564" x="1538.02" y="219.577" width="489.622" height="487.086" filterUnits="userSpaceOnUse" color-interpolation-filters="sRGB">
<feFlood flood-opacity="0" result="BackgroundImageFix"/>
<feBlend mode="normal" in="SourceGraphic" in2="BackgroundImageFix" result="shape"/>
<feGaussianBlur stdDeviation="75" result="effect1_foregroundBlur_3_564"/>
</filter>
<filter id="filter3_f_3_564" x="-85.0753" y="848.361" width="602.428" height="598.573" filterUnits="userSpaceOnUse" color-interpolation-filters="sRGB">
<feFlood flood-opacity="0" result="BackgroundImageFix"/>
<feBlend mode="normal" in="SourceGraphic" in2="BackgroundImageFix" result="shape"/>
<feGaussianBlur stdDeviation="75" result="effect1_foregroundBlur_3_564"/>
</filter>
<filter id="filter4_d_3_564" x="-152" y="569" width="364" height="360" filterUnits="userSpaceOnUse" color-interpolation-filters="sRGB">
<feFlood flood-opacity="0" result="BackgroundImageFix"/>
<feColorMatrix in="SourceAlpha" type="matrix" values="0 0 0 0 0 0 0 0 0 0 0 0 0 0 0 0 0 0 127 0" result="hardAlpha"/>
<feMorphology radius="5" operator="dilate" in="SourceAlpha" result="effect1_dropShadow_3_564"/>
<feOffset dy="6"/>
<feGaussianBlur stdDeviation="5"/>
<feComposite in2="hardAlpha" operator="out"/>
<feColorMatrix type="matrix" values="0 0 0 0 0 0 0 0 0 0 0 0 0 0 0 0 0 0 0.25 0"/>
<feBlend mode="normal" in2="BackgroundImageFix" result="effect1_dropShadow_3_564"/>
<feBlend mode="normal" in="SourceGraphic" in2="effect1_dropShadow_3_564" result="shape"/>
</filter>
<filter id="filter5_d_3_564" x="1522" y="2079" width="365" height="360" filterUnits="userSpaceOnUse" color-interpolation-filters="sRGB">
<feFlood flood-opacity="0" result="BackgroundImageFix"/>
<feColorMatrix in="SourceAlpha" type="matrix" values="0 0 0 0 0 0 0 0 0 0 0 0 0 0 0 0 0 0 127 0" result="hardAlpha"/>
<feMorphology radius="5" operator="dilate" in="SourceAlpha" result="effect1_dropShadow_3_564"/>
<feOffset dy="6"/>
<feGaussianBlur stdDeviation="5"/>
<feComposite in2="hardAlpha" operator="out"/>
<feColorMatrix type="matrix" values="0 0 0 0 0 0 0 0 0 0 0 0 0 0 0 0 0 0 0.25 0"/>
<feBlend mode="normal" in2="BackgroundImageFix" result="effect1_dropShadow_3_564"/>
<feBlend mode="normal" in="SourceGraphic" in2="effect1_dropShadow_3_564" result="shape"/>
</filter>
<filter id="filter6_d_3_564" x="503" y="1960" width="364" height="359" filterUnits="userSpaceOnUse" color-interpolation-filters="sRGB">
<feFlood flood-opacity="0" result="BackgroundImageFix"/>
<feColorMatrix in="SourceAlpha" type="matrix" values="0 0 0 0 0 0 0 0 0 0 0 0 0 0 0 0 0 0 127 0" result="hardAlpha"/>
<feMorphology radius="5" operator="dilate" in="SourceAlpha" result="effect1_dropShadow_3_564"/>
<feOffset dy="6"/>
<feGaussianBlur stdDeviation="5"/>
<feComposite in2="hardAlpha" operator="out"/>
<feColorMatrix type="matrix" values="0 0 0 0 0 0 0 0 0 0 0 0 0 0 0 0 0 0 0.25 0"/>
<feBlend mode="normal" in2="BackgroundImageFix" result="effect1_dropShadow_3_564"/>
<feBlend mode="normal" in="SourceGraphic" in2="effect1_dropShadow_3_564" result="shape"/>
</filter>
<filter id="filter7_d_3_564" x="1070.42" y="1010.64" width="204.572" height="202.049" filterUnits="userSpaceOnUse" color-interpolation-filters="sRGB">
<feFlood flood-opacity="0" result="BackgroundImageFix"/>
<feColorMatrix in="SourceAlpha" type="matrix" values="0 0 0 0 0 0 0 0 0 0 0 0 0 0 0 0 0 0 127 0" result="hardAlpha"/>
<feMorphology radius="5" operator="dilate" in="SourceAlpha" result="effect1_dropShadow_3_564"/>
<feOffset dy="6"/>
<feGaussianBlur stdDeviation="5"/>
<feComposite in2="hardAlpha" operator="out"/>
<feColorMatrix type="matrix" values="0 0 0 0 0 0 0 0 0 0 0 0 0 0 0 0 0 0 0.25 0"/>
<feBlend mode="normal" in2="BackgroundImageFix" result="effect1_dropShadow_3_564"/>
<feBlend mode="normal" in="SourceGraphic" in2="effect1_dropShadow_3_564" result="shape"/>
</filter>
<filter id="filter8_d_3_564" x="173.317" y="246.921" width="83.7623" height="82.985" filterUnits="userSpaceOnUse" color-interpolation-filters="sRGB">
<feFlood flood-opacity="0" result="BackgroundImageFix"/>
<feColorMatrix in="SourceAlpha" type="matrix" values="0 0 0 0 0 0 0 0 0 0 0 0 0 0 0 0 0 0 127 0" result="hardAlpha"/>
<feMorphology radius="5" operator="dilate" in="SourceAlpha" result="effect1_dropShadow_3_564"/>
<feOffset dy="6"/>
<feGaussianBlur stdDeviation="5"/>
<feComposite in2="hardAlpha" operator="out"/>
<feColorMatrix type="matrix" values="0 0 0 0 0 0 0 0 0 0 0 0 0 0 0 0 0 0 0.25 0"/>
<feBlend mode="normal" in2="BackgroundImageFix" result="effect1_dropShadow_3_564"/>
<feBlend mode="normal" in="SourceGraphic" in2="effect1_dropShadow_3_564" result="shape"/>
</filter>
<filter id="filter9_d_3_564" x="961.862" y="1084.94" width="184.551" height="182.316" filterUnits="userSpaceOnUse" color-interpolation-filters="sRGB">
<feFlood flood-opacity="0" result="BackgroundImageFix"/>
<feColorMatrix in="SourceAlpha" type="matrix" values="0 0 0 0 0 0 0 0 0 0 0 0 0 0 0 0 0 0 127 0" result="hardAlpha"/>
<feMorphology radius="5" operator="dilate" in="SourceAlpha" result="effect1_dropShadow_3_564"/>
<feOffset dy="6"/>
<feGaussianBlur stdDeviation="5"/>
<feComposite in2="hardAlpha" operator="out"/>
<feColorMatrix type="matrix" values="0 0 0 0 0 0 0 0 0 0 0 0 0 0 0 0 0 0 0.25 0"/>
<feBlend mode="normal" in2="BackgroundImageFix" result="effect1_dropShadow_3_564"/>
<feBlend mode="normal" in="SourceGraphic" in2="effect1_dropShadow_3_564" result="shape"/>
</filter>
<filter id="filter10_d_3_564" x="1746.87" y="278.56" width="81.6165" height="80.8702" filterUnits="userSpaceOnUse" color-interpolation-filters="sRGB">
<feFlood flood-opacity="0" result="BackgroundImageFix"/>
<feColorMatrix in="SourceAlpha" type="matrix" values="0 0 0 0 0 0 0 0 0 0 0 0 0 0 0 0 0 0 127 0" result="hardAlpha"/>
<feMorphology radius="5" operator="dilate" in="SourceAlpha" result="effect1_dropShadow_3_564"/>
<feOffset dy="6"/>
<feGaussianBlur stdDeviation="5"/>
<feComposite in2="hardAlpha" operator="out"/>
<feColorMatrix type="matrix" values="0 0 0 0 0 0 0 0 0 0 0 0 0 0 0 0 0 0 0.25 0"/>
<feBlend mode="normal" in2="BackgroundImageFix" result="effect1_dropShadow_3_564"/>
<feBlend mode="normal" in="SourceGraphic" in2="effect1_dropShadow_3_564" result="shape"/>
</filter>
<linearGradient id="paint0_linear_3_564" x1="235.027" y1="0" x2="127.905" y2="148.83" gradientUnits="userSpaceOnUse">
<stop stop-color="#89CAE3"/>
<stop offset="1" stop-color="#D9D9D9" stop-opacity="0"/>
<stop offset="1" stop-color="#EAB801"/>
<stop offset="1" stop-color="#F2D146"/>
</linearGradient>
<linearGradient id="paint1_linear_3_564" x1="235.917" y1="0" x2="129.46" y2="149.031" gradientUnits="userSpaceOnUse">
<stop stop-color="#89CAE3"/>
<stop offset="1" stop-color="#D9D9D9" stop-opacity="0"/>
<stop offset="1" stop-color="#EAB801"/>
<stop offset="1" stop-color="#F2D146"/>
</linearGradient>
<linearGradient id="paint2_linear_3_564" x1="235.917" y1="0" x2="129.46" y2="149.031" gradientUnits="userSpaceOnUse">
<stop stop-color="#89CAE3"/>
<stop offset="1" stop-color="#D9D9D9" stop-opacity="0"/>
<stop offset="1" stop-color="#EAB801"/>
<stop offset="1" stop-color="#F2D146"/>
</linearGradient>
<linearGradient id="paint3_linear_3_564" x1="70.9892" y1="0" x2="-20.3965" y2="17.6961" gradientUnits="userSpaceOnUse">
<stop stop-color="#89CAE3"/>
<stop offset="1" stop-color="#D9D9D9" stop-opacity="0"/>
<stop offset="1" stop-color="#EAB801"/>
<stop offset="1" stop-color="#F2D146"/>
</linearGradient>
<linearGradient id="paint4_linear_3_564" x1="70.9892" y1="0" x2="-20.3965" y2="17.6961" gradientUnits="userSpaceOnUse">
<stop stop-color="#89CAE3"/>
<stop offset="1" stop-color="#D9D9D9" stop-opacity="0"/>
<stop offset="1" stop-color="#EAB801"/>
<stop offset="1" stop-color="#F2D146"/>
</linearGradient>
<linearGradient id="paint5_linear_3_564" x1="1024.36" y1="70.5653" x2="255.283" y2="1166.77" gradientUnits="userSpaceOnUse">
<stop stop-color="#4791D6"/>
<stop offset="1" stop-color="#F5C24D"/>
</linearGradient>
<linearGradient id="paint6_linear_3_564" x1="1024.36" y1="70.5653" x2="255.283" y2="1166.77" gradientUnits="userSpaceOnUse">
<stop stop-color="#4791D6"/>
<stop offset="1" stop-color="#F5C24D"/>
</linearGradient>
<linearGradient id="paint7_linear_3_564" x1="149.39" y1="10.6174" x2="32.488" y2="172.122" gradientUnits="userSpaceOnUse">
<stop stop-color="#4791D6"/>
<stop offset="1" stop-color="#F5C24D"/>
</linearGradient>
<linearGradient id="paint8_linear_3_564" x1="232.185" y1="17.3018" x2="39.0425" y2="271.795" gradientUnits="userSpaceOnUse">
<stop stop-color="#4791D6"/>
<stop offset="1" stop-color="#F5C24D"/>
</linearGradient>
<linearGradient id="paint9_linear_3_564" x1="9.36819" y1="0" x2="9.36819" y2="77.3173" gradientUnits="userSpaceOnUse">
<stop stop-color="#6495C2"/>
<stop offset="1" stop-color="#D9D9D9"/>
</linearGradient>
<linearGradient id="paint10_linear_3_564" x1="9.36819" y1="0" x2="9.36819" y2="77.3173" gradientUnits="userSpaceOnUse">
<stop stop-color="#6495C2"/>
<stop offset="1" stop-color="#D9D9D9"/>
</linearGradient>
<linearGradient id="paint11_linear_3_564" x1="9.36819" y1="0" x2="9.36819" y2="77.3173" gradientUnits="userSpaceOnUse">
<stop stop-color="#6495C2"/>
<stop offset="1" stop-color="#D9D9D9"/>
</linearGradient>
<linearGradient id="paint12_linear_3_564" x1="9.36819" y1="0" x2="9.36819" y2="77.3173" gradientUnits="userSpaceOnUse">
<stop stop-color="#6495C2"/>
<stop offset="1" stop-color="#D9D9D9"/>
</linearGradient>
<linearGradient id="paint13_linear_3_564" x1="9.36819" y1="0" x2="9.36819" y2="77.3173" gradientUnits="userSpaceOnUse">
<stop stop-color="#6495C2"/>
<stop offset="1" stop-color="#D9D9D9"/>
</linearGradient>
<linearGradient id="paint14_linear_3_564" x1="9.34864" y1="0" x2="9.34864" y2="77.3173" gradientUnits="userSpaceOnUse">
<stop stop-color="#6495C2"/>
<stop offset="1" stop-color="#D9D9D9"/>
</linearGradient>
<linearGradient id="paint15_linear_3_564" x1="9.34864" y1="0" x2="9.34864" y2="77.3173" gradientUnits="userSpaceOnUse">
<stop stop-color="#6495C2"/>
<stop offset="1" stop-color="#D9D9D9"/>
</linearGradient>
<linearGradient id="paint16_linear_3_564" x1="9.34864" y1="0" x2="9.34864" y2="77.3173" gradientUnits="userSpaceOnUse">
<stop stop-color="#6495C2"/>
<stop offset="1" stop-color="#D9D9D9"/>
</linearGradient>
<linearGradient id="paint17_linear_3_564" x1="9.34864" y1="0" x2="9.34864" y2="77.3173" gradientUnits="userSpaceOnUse">
<stop stop-color="#6495C2"/>
<stop offset="1" stop-color="#D9D9D9"/>
</linearGradient>
<linearGradient id="paint18_linear_3_564" x1="9.34864" y1="0" x2="9.34864" y2="77.3173" gradientUnits="userSpaceOnUse">
<stop stop-color="#6495C2"/>
<stop offset="1" stop-color="#D9D9D9"/>
</linearGradient>
</defs>
</svg>
